<svg xmlns="http://www.w3.org/2000/svg" width="558" height="164" fill="none" viewBox="0 0 558 164"><path fill="#2B333B" d="M485.175 92.905h-13.694c0 13.687 10.992 22.787 26.665 22.787 15.403 0 25.854-8.107 25.854-20.098 0-14.366-10.07-16.47-22.725-19.114-.676-.141-1.359-.284-2.048-.43-9.188-1.892-12.161-3.871-12.161-9.005 0-4.864 4.236-8.195 11.08-8.195 6.755 0 11.349 3.695 11.349 9.64h13.694c0-12.248-9.553-20.354-25.043-20.354-14.863 0-24.591 8.647-24.591 20.084 0 13.694 11.079 17.207 21.53 19.28 11.444 2.25 15.045 3.696 15.045 9.188 0 4.865-4.688 8.29-11.532 8.29-8.106 0-13.423-4.324-13.423-12.073Z"/><path fill="#2B333B" fill-rule="evenodd" d="M403.837 82.155c0-20.267 12.613-33.779 31.529-33.779s31.528 13.512 31.528 33.779c0 20.267-12.612 33.778-31.528 33.778-18.916 0-31.529-13.511-31.529-33.778Zm49.992 0c0-13.782-7.384-23.064-18.47-23.064-11.086 0-18.463 9.282-18.463 23.064 0 13.781 7.384 23.064 18.463 23.064s18.47-9.283 18.47-23.064Z" clip-rule="evenodd"/><path fill="#2B333B" d="M190.358 49.035h-13.511l17.477 65.759h15.49l9.729-39.817c1.979-8.648 2.161-12.519 2.161-12.519h.183s.182 3.871 2.344 12.519l10.356 39.817h15.045l17.112-65.76h-13.511l-9.37 40.089c-1.797 7.836-1.979 12.072-1.979 12.072h-.271s-.452-4.236-2.344-12.072l-9.816-40.088h-15.315l-9.275 40.088c-1.804 7.66-2.433 12.072-2.433 12.072h-.182s-.358-4.506-2.162-12.072l-9.728-40.088Z"/><path fill="#2B333B" fill-rule="evenodd" d="M288.903 66.133c-14.686 0-24.415 9.728-24.415 24.773 0 15.132 9.735 24.948 24.415 24.955 14.593 0 24.321-9.823 24.321-24.955 0-15.045-9.728-24.773-24.321-24.773Zm0 9.545c7.026 0 11.708 5.5 11.708 15.228 0 9.275-4.141 15.403-11.708 15.403-7.12 0-11.802-5.493-11.802-15.403 0-9.1 4.236-15.228 11.802-15.228Z" clip-rule="evenodd"/><path fill="#2B333B" d="M319.257 66.87h11.978v8.83h.27c2.074-4.594 7.026-9.188 15.491-9.188 1.439 0 2.344.182 2.973.358v11.978h-.358s-1.081-.358-4.054-.358c-9.275 0-14.322 5.492-14.322 15.76v20.538h-11.978V66.87Zm48.276-17.835h-11.978v65.753h11.978V99.385l4.506-4.412 17.477 19.821h14.146L379.43 87.589l20.888-20.72h-14.95l-17.835 17.923h-.182s.182-2.25.182-14.68V49.035Z"/><path fill="#6363F1" d="M35 81.61c0 2.044.538 4.088 1.578 5.845l18.86 32.664c1.935 3.334 4.875 6.059 8.532 7.278 7.207 2.402 14.665-.681 18.215-6.848l4.553-7.888-17.963-31.05 23.52-40.767c1.363-2.366 3.192-4.302 5.343-5.844H68.38c-5.127 0-9.86 2.725-12.405 7.17L36.578 75.768C35.538 77.523 35 79.567 35 81.61Z"/><path fill="#6363F1" d="M142.563 81.61c0-2.043-.537-4.087-1.577-5.844l-19.111-33.093c-3.549-6.131-11.007-9.215-18.214-6.849-3.657 1.22-6.597 3.945-8.533 7.279l-4.303 7.422 17.963 31.086-23.52 40.766a18.946 18.946 0 0 1-5.342 5.844h29.257c5.127 0 9.86-2.724 12.406-7.17l19.397-33.596c1.04-1.757 1.577-3.8 1.577-5.844Z"/></svg>